<svg xmlns="http://www.w3.org/2000/svg" width="74.909" height="74.794" version="1.0">
  <path d="M37.374 0c19.66 5.51 39.548 20.044 37.371 44.879C72.57 69.697 45.3 80.098 18.471 56.9l-.96 1.064c.455.598 1.124 2.347.007 3.562-1.055 1.147-2.698-.136-3.59.784-1.058 1.09-.745.66-2.13 3.87C8.524 73.77 2.78 76.033.826 74.182c-2.002-1.898-.532-7.33 6.248-11.362 3.41-2.028 3.58-2.004 4.115-2.902.6-1.01-1.035-2.574.123-3.938 1.198-1.41 2.75-.853 3.378-.403l2.969-3.679c26.137 14.625 41.677 7.796 45.37-5.074C66.656 34.183 65.64 18.606 37.374 0z"></path>
  <path d="M20.363 20.926c-1.634 1.634-2.034 1.538-1.257 2.315l49.517 51.326c.777.778 2.719.088 4.353-1.546 1.635-1.635 2.324-3.576 1.547-4.354L22.74 19.717c-.777-.777-.743-.426-2.377 1.209z"></path>
  <path d="M17.175 36.898L38.433 15.64l-11.977-2.165-16.352 16.352 7.071 7.071z"></path>
</svg>