<svg xmlns="http://www.w3.org/2000/svg" width="96" height="96" viewBox="0 0 2540 2540" shape-rendering="geometricPrecision" text-rendering="geometricPrecision" image-rendering="optimizeQuality" fill-rule="evenodd" clip-rule="evenodd">
  <path d="M118.49 731.31L973 327.83c80.87-38.18 178.27-3.26 216.45 77.61l108.59 229.96c-26.75 23.89-48.92 53.61-64.24 88.3l-381.79 864.43c-29.43 66.63-28.29 139.59-2.83 202.82l-188.36 88.93c-80.87 38.19-178.27 3.27-216.46-77.6L40.88 947.76C2.7 866.89 37.62 769.5 118.49 731.31zm1434.83-61.15l864.42 381.8c81.81 36.13 119.17 132.61 83.05 214.42l-381.8 864.43c-36.13 81.8-132.61 119.16-214.42 83.04l-864.42-381.8c-81.81-36.13-119.17-132.61-83.05-214.42l381.8-864.42c36.13-81.81 132.61-119.17 214.42-83.05zm31.34 209.69c79.24 0 143.47 64.23 143.47 143.47 0 79.23-64.23 143.47-143.47 143.47-79.23 0-143.46-64.24-143.46-143.47 0-79.24 64.23-143.47 143.46-143.47zm306.67 821.95c79.24 0 143.47 64.23 143.47 143.47 0 79.23-64.23 143.46-143.47 143.46-79.23 0-143.46-64.23-143.46-143.46 0-79.24 64.23-143.47 143.46-143.47zm-155.44-403.26c79.24 0 143.47 64.23 143.47 143.47 0 79.23-64.23 143.46-143.47 143.46-79.23 0-143.46-64.23-143.46-143.46 0-79.24 64.23-143.47 143.46-143.47zM972.01 539.51c87.16 0 157.81 70.65 157.81 157.81s-70.65 157.81-157.81 157.81S814.2 784.48 814.2 697.32s70.65-157.81 157.81-157.81zm-310.29 829.43c87.16 0 157.81 70.66 157.81 157.82s-70.65 157.81-157.81 157.81-157.81-70.65-157.81-157.81 70.65-157.82 157.81-157.82zm-268.36-566.7c87.16 0 157.82 70.65 157.82 157.81s-70.66 157.82-157.82 157.82c-87.15 0-157.81-70.66-157.81-157.82s70.66-157.81 157.81-157.81z" fill="#fbfbfb"></path>
</svg>