<svg height="512" viewBox="0 0 512.003 512.003" width="512" xmlns="http://www.w3.org/2000/svg"><path d="M115.19 181.9L9.64 255.806c-3.368 2.358-2.621 7.544 1.276 8.856 18.53 6.238 30.838 23.816 30.362 43.362-.1 4.11 4.518 6.586 7.885 4.228l49.105-34.384zm281.623-7.064l105.55 73.907c3.368 2.358 2.621 7.544-1.276 8.856-18.53 6.238-30.838 23.816-30.362 43.362.1 4.11-4.518 6.586-7.885 4.228l-49.105-34.384zM223.227 159.346c-29.047 13.879-86.024-44.836-99.902-73.883s8.49-42.765 37.536-56.643 53.772-22.663 67.651 6.384 23.761 110.264-5.285 124.142z" fill="#f8c52d"/><path d="M223.232 159.342c-5.28 2.52-11.49 2.65-18.19.98 20.65-22.48 11.3-92.58-1.38-119.12-6.77-14.16-16.12-19.33-27.3-19.3 22.25-8.91 40.81-10.42 52.15 13.3 13.88 29.05 23.76 110.27-5.28 124.14z" fill="#e7b729"/><path d="M288.776 159.346c29.047 13.879 86.024-44.836 99.902-73.883 13.879-29.047-8.49-42.765-37.536-56.643s-53.772-22.663-67.651 6.384c-13.878 29.047-23.761 110.264 5.285 124.142z" fill="#f8c52d"/><path d="M388.681 85.462c-12.91 27.02-63.09 79.68-93.42 75.75 27.69-14.18 58.8-49.3 68.56-69.75 13.88-29.04-8.48-42.76-37.53-56.64-12.15-5.8-23.54-10.72-33.7-12.35 14.39-12.77 35.05-4.88 58.55 6.35 29.05 13.88 51.421 27.6 37.54 56.64z" fill="#e7b729"/><path d="M271.527 145.028s72.243-75.309 127.407-46.264c51.41 27.068-16.02 103.902-127.407 103.902z" fill="#fde784"/><path d="M408.93 146.191c-18.541 28.26-69.896 56.475-137.402 56.475V185.15s72.24-75.304 127.405-46.262c4.068 2.147 7.392 4.599 9.997 7.303z" fill="#fddd45"/><path d="M408.928 146.191c-2.799 4.274-6.351 8.541-10.595 12.702-48.597-24.863-110.138 30.387-123.962 43.751-.948.015-1.896.023-2.845.023v-17.518s72.241-75.304 127.408-46.265c4.064 2.153 7.39 4.606 9.994 7.307z" fill="#f8c52d"/><path d="M240.476 145.028s-72.243-75.309-127.407-46.264c-51.41 27.068 16.02 103.902 127.407 103.902z" fill="#fde784"/><path d="M103.073 146.191c18.541 28.26 69.896 56.475 137.402 56.475V185.15s-72.24-75.304-127.404-46.262c-4.069 2.147-7.392 4.599-9.998 7.303z" fill="#fddd45"/><path d="M240.477 185.149v17.518c-.948 0-1.896-.008-2.844-.023-13.824-13.365-75.364-68.614-123.962-43.751-4.244-4.161-7.796-8.428-10.595-12.702 2.604-2.702 5.93-5.155 9.993-7.307 55.167-29.039 127.408 46.265 127.408 46.265z" fill="#f8c52d"/><path d="M280.854 184.254h-49.705v-47.909a8.983 8.983 0 018.983-8.983h31.74a8.983 8.983 0 018.983 8.983v47.909z" fill="#fef5c8"/><g><path d="M422.634 229.867v257.249c0 4.959-4.024 8.983-8.983 8.983h-315.3c-4.959 0-8.983-4.024-8.983-8.983V229.867z" fill="#fb4a59"/><path d="M89.372 318.661h333.26v58.37H89.372z" fill="#f82f40"/><path d="M422.634 229.867v257.249c0 4.959-4.024 8.983-8.983 8.983h-30.093c4.959 0 8.983-4.024 8.983-8.983V229.867z" fill="#f82f40"/><path d="M89.372 298.989h333.26v58.37H89.372z" fill="#f8c52d"/><path d="M392.542 298.989h30.09v58.37h-30.09z" fill="#e7b729"/><path d="M89.369 229.867h333.266v35.919H89.369z" fill="#f82f40"/><path d="M216.332 229.87h79.34V496.1h-79.34z" fill="#fddd45"/><path d="M216.332 229.87h79.34v35.92h-79.34z" fill="#f8c52d"/><path d="M426.892 244.132H85.111a8.983 8.983 0 01-8.983-8.983v-51.151a8.983 8.983 0 018.983-8.983h341.781a8.983 8.983 0 018.983 8.983v51.151a8.983 8.983 0 01-8.983 8.983z" fill="#fb4a59"/><path d="M212.209 175.015h87.584v69.117h-87.584z" fill="#fde784"/><path d="M435.875 184v51.149c0 4.959-4.024 8.983-8.983 8.983H396.8c4.959 0 8.983-4.024 8.983-8.983V184c0-4.959-4.024-8.983-8.983-8.983h30.093c4.958 0 8.982 4.024 8.982 8.983z" fill="#f82f40"/></g><path d="M506.663 242.598l-62.489-43.76a7.566 7.566 0 00-.799-.482v-14.358c0-9.089-7.394-16.483-16.482-16.483h-26.817c15.924-14.37 24.636-30.565 23.83-45.183-.489-8.876-4.613-21.322-21.479-30.207a65.305 65.305 0 00-7.089-3.204l.111-.224c18.29-38.281-17.433-55.35-41.071-66.644-13.418-6.41-28.878-13.28-42.554-13.635-15.592-.422-27.438 7.518-35.1 23.553-8.967 18.769-16.181 57.35-13.728 87.891h-13.991c.936-11.53.562-24.691-1.12-38.465a7.5 7.5 0 10-14.889 1.818c1.687 13.822 1.951 26.844.815 37.912a16.522 16.522 0 00-4.95 3.224c-8.18-6.775-18.626-14.577-30.408-21.474-.461-7.45-2.15-23.402-8.338-41.933a7.498 7.498 0 00-9.49-4.738 7.5 7.5 0 00-4.738 9.489 157.346 157.346 0 016.69 28.95c-.602-.271-1.198-.552-1.804-.815-17.807-7.727-34.264-10.619-49.181-8.673a62.325 62.325 0 01-1.5-2.926c-10.117-21.174 2.313-31.501 34.003-46.643 14.915-7.126 26.825-11.924 36.475-12.175 6.844-.179 14.698 1.47 21.176 15.026 1.678 3.51 3.314 7.93 4.865 13.139a7.5 7.5 0 0014.377-4.282c-1.774-5.957-3.695-11.113-5.708-15.326-7.662-16.035-19.507-23.959-35.1-23.553-13.676.355-29.135 7.225-42.552 13.636-23.639 11.294-59.361 28.362-41.07 66.645.035.073.075.149.11.223a65.535 65.535 0 00-7.091 3.205c-16.865 8.884-20.989 21.33-21.479 30.207-.806 14.618 7.906 30.814 23.83 45.183H85.111c-9.089 0-16.482 7.394-16.482 16.483v21.428c-.272.144-.54.3-.799.481l-62.49 43.75a12.453 12.453 0 00-5.209 12.038c.677 4.7 3.892 8.56 8.388 10.073 15.505 5.222 25.659 19.718 25.266 36.069a12.452 12.452 0 006.596 11.336c1.864 1 3.894 1.494 5.916 1.494 2.513 0 5.013-.764 7.168-2.273l28.405-19.886v188.608c0 9.089 7.395 16.483 16.483 16.483h315.299c9.089 0 16.483-7.394 16.483-16.483V291.442l28.417 19.902a12.486 12.486 0 007.155 2.261c2.027 0 4.063-.497 5.931-1.501a12.448 12.448 0 006.582-11.322c-.394-16.354 9.761-30.851 25.266-36.072a12.45 12.45 0 008.388-10.074 12.461 12.461 0 00-5.211-12.038zM96.869 306.485h111.966v43.369H96.869zm111.966-15H96.869v-39.853h111.966zm10.875-54.853v-54.117h72.584v54.117zm52.162-101.77c.815 0 1.479.664 1.479 1.48v31.174h-34.699v-31.174c0-.816.664-1.48 1.479-1.48zm143.262 116.77v39.853H303.169v-39.853zm-111.965 54.853h111.966v43.369H303.169zm53.997-138.969c-4.143 0-7.5 3.358-7.5 7.5s3.357 7.5 7.5 7.5h69.727c.817 0 1.482.665 1.482 1.483v51.151c0 .818-.665 1.483-1.482 1.483H307.294v-54.117h16.211c4.143 0 7.5-3.358 7.5-7.5s-3.357-7.5-7.5-7.5h-19.9c10.103-7.425 22.391-15.18 35.519-20.618 21.883-9.064 40.83-9.526 56.31-1.375a38.943 38.943 0 013.243 1.918c-5.211 6.322-12.241 12.609-20.738 18.36a7.473 7.473 0 00-1.792 1.715zm51.761-44.357c.2 3.631-.6 7.538-2.295 11.576a53.649 53.649 0 00-4.207-2.482c-39.836-20.973-86.066 5.994-114.074 28.01v-20.674c.021-.017.043-.032.063-.05 19.523-16.929 69.026-54.146 107.021-34.141 8.552 4.504 13.091 10.479 13.492 17.761zM290.259 38.438c6.477-13.557 14.34-15.202 21.175-15.025 9.65.251 21.561 5.048 36.475 12.175 31.689 15.141 44.12 25.469 34.004 46.641-.444.929-.951 1.91-1.504 2.927-14.917-1.945-31.372.947-49.178 8.673-6.446 2.797-12.658 6.064-18.535 9.545 2.694-11.396 6.749-26.469 11.793-38.94a7.5 7.5 0 00-4.141-9.765 7.5 7.5 0 00-9.766 4.14c-8.438 20.86-14.177 48.11-15.827 56.468a253.72 253.72 0 00-11.614 9.073 16.516 16.516 0 00-4.972-3.232c-2.854-28.006 3.901-65.543 12.09-82.68zm-187.183 84.721c.401-7.281 4.94-13.257 13.49-17.761 37.992-20.003 87.501 17.212 107.022 34.141.021.018.043.032.063.05v20.675c-28.009-22.016-74.239-48.982-114.08-28.008a54.172 54.172 0 00-4.201 2.477c-1.695-4.038-2.495-7.944-2.294-11.574zm30.99 42.642c-8.497-5.751-15.528-12.04-20.74-18.362a39.308 39.308 0 013.24-1.915c15.484-8.151 34.432-7.69 56.313 1.374 13.128 5.438 25.416 13.193 35.519 20.617h-72.541a7.447 7.447 0 00-1.791-1.714zm-50.437 18.197c0-.818.665-1.483 1.482-1.483H204.71v54.117H85.111a1.484 1.484 0 01-1.482-1.483zm-2.559 96.76l-32.389 22.675c-1.273-19.399-13.13-36.327-30.927-44.156l50.874-35.617v11.49c0 7.979 5.699 14.648 13.24 16.159v28.968c-.271.144-.539.3-.798.481zm15.799 206.36V364.854h111.966v29.984c0 4.142 3.357 7.5 7.5 7.5s7.5-3.358 7.5-7.5V251.632h64.334V488.6h-64.334v-60.102c0-4.142-3.357-7.5-7.5-7.5s-7.5 3.358-7.5 7.5V488.6H98.352a1.484 1.484 0 01-1.483-1.482zm316.782 1.482H303.169V364.854h111.966v122.264a1.486 1.486 0 01-1.484 1.482zm49.671-192.228l-32.388-22.683a7.479 7.479 0 00-.8-.482v-21.898c7.541-1.511 13.24-8.18 13.24-16.159v-18.558l50.874 35.626c-17.794 7.827-29.651 24.755-30.926 44.154z"/></svg>