<svg xmlns="http://www.w3.org/2000/svg" width="96" height="96" viewBox="0 0 2540 2540" shape-rendering="geometricPrecision" text-rendering="geometricPrecision" image-rendering="optimizeQuality" fill-rule="evenodd" clip-rule="evenodd">
  <path d="M1424.66 94.81c529.6 68.96 949.36 487.6 1020.16 1016.64h-291.36c-66.08-369.76-358.48-661.04-728.8-725.28V94.81zm-154.56 502.8c377.92 0 684.16 306.24 684.16 684.08 0 377.84-306.24 684.08-684.16 684.08-377.84 0-684.08-306.24-684.08-684.08 0-377.84 306.24-684.08 684.08-684.08zm0 277.52c224.4 0 406.48 182.24 406.48 406.56s-182.08 406.56-406.48 406.56c-224.32 0-406.32-182.24-406.32-406.56s182-406.56 406.32-406.56zm1173.6 562c-74 524.48-491.2 938.56-1017.12 1007.92v-290.96c366.8-64.48 656.8-351.76 725.44-716.96h291.68zM1114.58 2445.21c-526.4-69.04-944-483.28-1018.08-1008.08h291.68c68.72 365.52 359.2 652.96 726.4 717.12v290.96zM95.3 1111.45c70.64-528.48 489.6-946.72 1018.48-1016.4v291.44c-369.52 64.88-661.04 355.84-727.04 724.96H95.3z" fill="#E8432A"></path>
</svg>