<svg xmlns="http://www.w3.org/2000/svg" width="96" height="96" viewBox="0 0 2540 2540" shape-rendering="geometricPrecision" text-rendering="geometricPrecision" image-rendering="optimizeQuality" fill-rule="evenodd" clip-rule="evenodd">
  <path d="M25.4 1347.48v-100.53h2018.8l135.76 10 60.75 90.53H25.4zm0-134.45v-27.19H235l7.74-33.24h-41.48v-61.43h99.87v-17.71h70.01v22.88l22.85-39.54h167.83v33.49h56.65l8.95-33.28h53.29l7.99 29.71h955.55l341.57 73.13 9.33 53.18H25.4zm672.36-160.22l9.3-34.73H422.14V806.15h318.19V682.1h316.5V807l118.01 9.09 6.05-28.93 122.78 18.6-5.2 30.7 139.68 9.05 78.68 44.56h378.32l10.54 18.21h596.85l12.06 6.97v57.81l-19.17 11.07h-581.75l-23.06 13.3h-416.68l6.93 54.32 4.95 1.06H697.76zM2234.81 1546.08c-14.5 71.08-49.19 147.32-108.99 188.48-94.21 64.93-210.66 110.69-325.06 110.69-448.47 0-897.9 28.39-1345.45 0-102.63-6.51-209.07-41.02-290.47-103.79-64.29-49.55-127.13-131.34-119.35-212.04 6.75-70.76 82.82-147.67 153.9-147.67h1853.83c47.32.78 103.26.21 138.34 31.93 34.44 31.16 52.51 86.92 43.25 132.4zm-408.41-122.92c94.74 0 171.51 75.92 171.51 169.56s-76.77 169.57-171.51 169.57-171.51-75.93-171.51-169.57c0-93.64 76.77-169.56 171.51-169.56zm-475.63 0c94.74 0 171.51 75.92 171.51 169.56s-76.77 169.57-171.51 169.57-171.51-75.93-171.51-169.57c0-93.64 76.77-169.56 171.51-169.56zm-460.04 0c94.74 0 171.51 75.92 171.51 169.56s-76.77 169.57-171.51 169.57-171.51-75.93-171.51-169.57c0-93.64 76.77-169.56 171.51-169.56zm-448.72 0c94.74 0 171.51 75.92 171.51 169.56s-76.77 169.57-171.51 169.57-171.51-75.93-171.51-169.57c0-93.64 76.77-169.56 171.51-169.56z" fill="#fbfbfb"></path>
</svg>