<svg xmlns="http://www.w3.org/2000/svg" width="128" height="128" viewBox="0 0 3386.66 3386.66"
  shape-rendering="geometricPrecision" text-rendering="geometricPrecision" image-rendering="optimizeQuality"
  fill-rule="evenodd" clip-rule="evenodd">
  <path d="M2492.2 3121.14c-485.67 261.65-1012.43 295.63-1598.69-.12l189.67-139.55c417.32 176.75 817.02 150.64 1204.74-13.32l204.28 152.99zm139.26-97.36l-356.94-1114.95 953.16-704.08H2047.5L1676.83 75.07l-372.15 1121.31H126.46l947.25 703.57-356.47 1123.83 959.83-687.95 954.39 687.95zm171.67-121.58c402.01-377.79 601.08-866.66 506.24-1516.41l-192.44 135.7c35.48 451.82-115.89 822.66-394.21 1138.49l80.41 242.22zm395.14-1915.67c-242.71-495.41-651.33-829.56-1300.22-930.17l73.05 223.85c442.24 99.09 752.1 352.9 972.02 711.86l255.15-5.54zm-3003.68 0C437.31 491.12 845.92 156.97 1494.81 56.36l-73.04 223.85C979.52 379.3 669.66 633.12 449.74 992.07l-255.15-5.54zM583.53 2902.2C181.52 2524.41-17.55 2035.54 77.29 1385.79l192.44 135.7c-35.48 451.82 115.89 822.66 394.21 1138.49l-80.41 242.22z" fill="#1F98FC"></path>
  </svg>