<svg xmlns="http://www.w3.org/2000/svg" width="96" height="96" viewBox="0 0 2540 2540" shape-rendering="geometricPrecision" text-rendering="geometricPrecision" image-rendering="optimizeQuality" fill-rule="evenodd" clip-rule="evenodd">
  <ellipse class="fil0" cx="1960.05" cy="2195.22" rx="173.52" ry="175.78" fill="#fbfbfb"></ellipse>
  <ellipse class="fil0" cx="1002.07" cy="2195.22" rx="173.52" ry="175.78" fill="#fbfbfb"></ellipse>
  <path d="M2192.31 1904.21c100.62 0 102.06-178.04 0-178.04H856.57l-21.69-110.71h1367.83c55.85 0 121.37-47.46 132.85-102.12l192.04-914.6c13.33-63.47-46.13-140.08-113.42-140.08H590.86c-14.01-65.22-28.02-130.44-42.03-195.67C536.82 207.04 462.37 169 405.14 169H91.53c-109.15 0-106.83 183.47 0 183.47h291.92l308.17 1454.14c11.62 54.83 80.87 97.6 136.93 97.6h1363.76zm-1045.44-467.93l-31.63-309.99H732.95l64.17 309.99h349.75zm-49.71-488.04l-30.73-309.53H629.01l62.36 309.53h405.79zm180.31 0l-32.09-309.53h478.08l-21.69 309.53h-424.3zm1056.94-308.18l-65.07 307.28h-385.91l18.98-307.28h432zm-481.7 796.22l18.97-309.99h360.6l-64.16 309.99h-315.41zm-178.95 0l20.79-309.99h-399.46l29.82 309.99h348.85z" fill="#fbfbfb"></path>
</svg>