<svg width="1280" height="720" viewBox="0 0 1280 720" fill="none" xmlns="http://www.w3.org/2000/svg">
  <path fill="#421717" d="M0 0h1280v720H0z"></path>
  <path stroke="#630000" d="M187.354-93.354l905.096 905.097M147.354-93.354l905.096 905.097M167.354-93.354l905.096 905.097M127.354-93.354l905.096 905.097M107.354-93.354l905.096 905.097M177.354-93.354l905.096 905.097M137.354-93.354l905.096 905.097M157.354-93.354l905.096 905.097M117.354-93.354l905.096 905.097M97.354-93.354l905.096 905.097M87.354-93.354L992.45 811.743M47.354-93.354L952.45 811.743M67.354-93.354L972.45 811.743M27.354-93.354L932.45 811.743M7.354-93.354L912.45 811.743M77.354-93.354L982.45 811.743M37.354-93.354L942.45 811.743M57.354-93.354L962.45 811.743M17.354-93.354L922.45 811.743M-2.646-93.354L902.45 811.743M-12.646-93.354L892.45 811.743M-52.646-93.354L852.45 811.743M-32.646-93.354L872.45 811.743M-72.646-93.354L832.45 811.743M-92.646-93.354L812.45 811.743M-22.646-93.354L882.45 811.743M-62.646-93.354L842.45 811.743M-42.646-93.354L862.45 811.743M-82.646-93.354L822.45 811.743M-102.646-93.354L802.45 811.743M-112.646-93.354L792.45 811.743M-152.646-93.354L752.45 811.743M-132.646-93.354L772.45 811.743M-172.646-93.354L732.45 811.743M-192.646-93.354L712.45 811.743M-122.646-93.354L782.45 811.743M-162.646-93.354L742.45 811.743M-142.646-93.354L762.45 811.743M-182.646-93.354L722.45 811.743M-202.646-93.354L702.45 811.743M-212.646-93.354L692.45 811.743M-252.646-93.354L652.45 811.743M-232.646-93.354L672.45 811.743M-272.646-93.354L632.45 811.743M-292.646-93.354L612.45 811.743M-222.646-93.354L682.45 811.743M-262.646-93.354L642.45 811.743M-242.646-93.354L662.45 811.743M-282.646-93.354L622.45 811.743M-302.646-93.354L602.45 811.743M1187.35-93.354l905.1 905.097M1147.35-93.354l905.1 905.097M1167.35-93.354l905.1 905.097M1127.35-93.354l905.1 905.097M1107.35-93.354l905.1 905.097M1177.35-93.354l905.1 905.097M1137.35-93.354l905.1 905.097M1157.35-93.354l905.1 905.097M1117.35-93.354l905.1 905.097M1097.35-93.354l905.1 905.097M1087.35-93.354l905.1 905.097M1047.35-93.354l905.1 905.097M1067.35-93.354l905.1 905.097M1027.35-93.354l905.1 905.097M1007.35-93.354l905.1 905.097M1077.35-93.354l905.1 905.097M1037.35-93.354l905.1 905.097M1057.35-93.354l905.1 905.097M1017.35-93.354l905.1 905.097M997.354-93.354l905.096 905.097M987.354-93.354l905.096 905.097M947.354-93.354l905.096 905.097M967.354-93.354l905.096 905.097M927.354-93.354l905.096 905.097M907.354-93.354l905.096 905.097M977.354-93.354l905.096 905.097M937.354-93.354l905.096 905.097M957.354-93.354l905.096 905.097M917.354-93.354l905.096 905.097M897.354-93.354l905.096 905.097M887.354-93.354l905.096 905.097M847.354-93.354l905.096 905.097M867.354-93.354l905.096 905.097M827.354-93.354l905.096 905.097M807.354-93.354l905.096 905.097M877.354-93.354l905.096 905.097M837.354-93.354l905.096 905.097M857.354-93.354l905.096 905.097M817.354-93.354l905.096 905.097M797.354-93.354l905.096 905.097M787.354-93.354l905.096 905.097M747.354-93.354l905.096 905.097M767.354-93.354l905.096 905.097M727.354-93.354l905.096 905.097M707.354-93.354l905.096 905.097M777.354-93.354l905.096 905.097M737.354-93.354l905.096 905.097M757.354-93.354l905.096 905.097M717.354-93.354l905.096 905.097M697.354-93.354l905.096 905.097M-312.646-93.354L592.45 811.743M-352.646-93.354L552.45 811.743M-332.646-93.354L572.45 811.743M-372.646-93.354L532.45 811.743M-392.646-93.354L512.45 811.743M-322.646-93.354L582.45 811.743M-362.646-93.354L542.45 811.743M-342.646-93.354L562.45 811.743M-382.646-93.354L522.45 811.743M-402.646-93.354L502.45 811.743M-412.646-93.354L492.45 811.743M-452.646-93.354L452.45 811.743M-432.646-93.354L472.45 811.743M-472.646-93.354L432.45 811.743M-492.646-93.354L412.45 811.743M-422.646-93.354L482.45 811.743M-462.646-93.354L442.45 811.743M-442.646-93.354L462.45 811.743M-482.646-93.354L422.45 811.743M-502.646-93.354L402.45 811.743M-512.646-93.354L392.45 811.743M-552.646-93.354L352.45 811.743M-532.646-93.354L372.45 811.743M-572.646-93.354L332.45 811.743M-592.646-93.354L312.45 811.743M-522.646-93.354L382.45 811.743M-562.646-93.354L342.45 811.743M-542.646-93.354L362.45 811.743M-582.646-93.354L322.45 811.743M-602.646-93.354L302.45 811.743M-612.646-93.354L292.45 811.743M-652.646-93.354L252.45 811.743M-632.646-93.354L272.45 811.743M-672.646-93.354L232.45 811.743M-692.646-93.354L212.45 811.743M-622.646-93.354L282.45 811.743M-662.646-93.354L242.45 811.743M-642.646-93.354L262.45 811.743M-682.646-93.354L222.45 811.743M-702.646-93.354L202.45 811.743M-712.646-93.354L192.45 811.743M-752.646-93.354L152.45 811.743M-732.646-93.354L172.45 811.743M-772.646-93.354L132.45 811.743M-792.646-93.354L112.45 811.743M-722.646-93.354L182.45 811.743M-762.646-93.354L142.45 811.743M-742.646-93.354L162.45 811.743M-782.646-93.354L122.45 811.743M-802.646-93.354L102.45 811.743M687.354-93.354l905.096 905.097M647.354-93.354l905.096 905.097M667.354-93.354l905.096 905.097M627.354-93.354l905.096 905.097M607.354-93.354l905.096 905.097M677.354-93.354l905.096 905.097M637.354-93.354l905.096 905.097M657.354-93.354l905.096 905.097M617.354-93.354l905.096 905.097M597.354-93.354l905.096 905.097M587.354-93.354l905.096 905.097M547.354-93.354l905.096 905.097M567.354-93.354l905.096 905.097M527.354-93.354l905.096 905.097M507.354-93.354l905.096 905.097M577.354-93.354l905.096 905.097M537.354-93.354l905.096 905.097M557.354-93.354l905.096 905.097M517.354-93.354l905.096 905.097M497.354-93.354l905.096 905.097M487.354-93.354l905.096 905.097M447.354-93.354l905.096 905.097M467.354-93.354l905.096 905.097M427.354-93.354l905.096 905.097M407.354-93.354l905.096 905.097M477.354-93.354l905.096 905.097M437.354-93.354l905.096 905.097M457.354-93.354l905.096 905.097M417.354-93.354l905.096 905.097M397.354-93.354l905.096 905.097M387.354-93.354l905.096 905.097M347.354-93.354l905.096 905.097M367.354-93.354l905.096 905.097M327.354-93.354l905.096 905.097M307.354-93.354l905.096 905.097M377.354-93.354l905.096 905.097M337.354-93.354l905.096 905.097M357.354-93.354l905.096 905.097M317.354-93.354l905.096 905.097M297.354-93.354l905.096 905.097M287.354-93.354l905.096 905.097M247.354-93.354l905.096 905.097M267.354-93.354l905.096 905.097M227.354-93.354l905.096 905.097M207.354-93.354l905.096 905.097M277.354-93.354l905.096 905.097M237.354-93.354l905.096 905.097M257.354-93.354l905.096 905.097M217.354-93.354l905.096 905.097M197.354-93.354l905.096 905.097"></path>
</svg>