<svg xmlns="http://www.w3.org/2000/svg" width="96" height="96" viewBox="0 0 2540 2540" shape-rendering="geometricPrecision" text-rendering="geometricPrecision" image-rendering="optimizeQuality" fill-rule="evenodd" clip-rule="evenodd">
  <path d="M954.11 2402.29c-.21 44.91-82.99 79.36-122.22 57.36l-728.3-408.2c-24.33-13.65-49.89-39.42-49.89-67.35V162.48c0-39.46 38.62-88.96 78.08-88.96h1519.76c37.87 0 84.81 37.77 84.81 75.61v699.58h-167.54V243.73H468.31l438.98 247.58c24.48 13.79 46.56 42.19 46.56 70.26v1330.96h614.32v-472.66h168.18v561.55c0 37.57-42.19 79.74-79.75 79.74H955.8l-1.69 341.13z" fill="#fbfbfb"></path>
  <path d="M1452.99 1257.5h462.27v223.65c0 28.28 51.11 58.21 74 41.57l481.78-350.43c20.35-14.8 20.31-60.65 0-75.46l-479.31-349.17c-23.47-17.1-76.5 12.93-76.5 41.99v226.88h-462.24c-153.61 0-148.95 240.97 0 240.97z" fill="#fbfbfb"></path>
</svg>