<svg width="70" height="70" viewBox="0 0 70 70" fill="none" xmlns="http://www.w3.org/2000/svg"><path d="M-12.672-46.063l96.547 96.546M-12.672.75l96.547 96.546M-12.672-22.657L83.875 73.89M-12.672 24.156l96.547 96.547M-13.646-41.186L82.9 55.361M-13.646 5.627L82.9 102.174M-13.646-17.779L82.9 78.767M-13.646 29.034L82.9 125.581M-11.696-50.939l96.547 96.547M-11.696-4.126l96.547 96.547M-11.696-27.532l96.547 96.547M-11.696 19.281l96.547 96.547M-11.696-56.79l96.547 96.547M-11.696-9.977L84.851 86.57M-11.696-33.384l96.547 96.547M-11.696 13.429l96.547 96.547M-12.672 47.373l96.547 96.547M-12.672-92.814L83.875 3.733M-12.672-69.407L83.875 27.14M-13.646 52.251L82.9 148.798M-13.646-87.936L82.9 8.611M-13.646-64.53L82.9 32.017M-11.696 42.498l96.547 96.547M-11.696 65.905l96.547 96.546M-11.696-74.282l96.547 96.547M-11.696 36.646l96.547 96.547M-11.696 60.053L84.851 156.6M-11.696-80.134l96.547 96.547" stroke="#171717"></path></svg>